<svg width="122" height="25" viewBox="0 0 122 25" fill="none" xmlns="http://www.w3.org/2000/svg">
<path d="M8.71887 24.4654C6.90436 24.4654 5.34358 24.0809 4.03651 23.3121C2.73714 22.5355 1.73762 21.4591 1.03796 20.0829C0.345987 18.7066 0 17.1227 0 15.3313C0 13.5168 0.349831 11.9253 1.04949 10.5567C1.75684 9.18043 2.76021 8.10787 4.05958 7.33901C5.35895 6.56246 6.90436 6.17419 8.6958 6.17419C10.2412 6.17419 11.5944 6.45482 12.7554 7.01609C13.9164 7.57735 14.8352 8.36544 15.5117 9.38033C16.1883 10.3952 16.5612 11.587 16.6304 12.9555H11.9942C11.8635 12.0713 11.5175 11.3601 10.9563 10.8219C10.4027 10.2761 9.6761 10.0031 8.77654 10.0031C8.01536 10.0031 7.3503 10.2107 6.78134 10.6259C6.22008 11.0334 5.78183 11.6292 5.46659 12.4135C5.15136 13.1977 4.99374 14.1473 4.99374 15.2621C4.99374 16.3923 5.14752 17.3534 5.45506 18.1453C5.77029 18.9373 6.21239 19.5408 6.78134 19.956C7.3503 20.3712 8.01536 20.5788 8.77654 20.5788C9.3378 20.5788 9.84141 20.4634 10.2873 20.2328C10.741 20.0021 11.1139 19.6677 11.406 19.2294C11.7059 18.7835 11.9019 18.2491 11.9942 17.6264H16.6304C16.5536 18.9795 16.1845 20.1713 15.5233 21.2016C14.8697 22.2241 13.9663 23.0237 12.813 23.6004C11.6598 24.177 10.295 24.4654 8.71887 24.4654Z" fill="white"/>
<path d="M24.689 0.5V24.1194H19.776V0.5H24.689Z" fill="white"/>
<path d="M39.9846 16.5769V6.40484H44.8976V24.1194H40.1806V20.9017H39.9961C39.5963 21.9397 38.9312 22.7739 38.0009 23.4043C37.0783 24.0348 35.9519 24.35 34.6218 24.35C33.4377 24.35 32.3959 24.0809 31.4963 23.5427C30.5968 23.0045 29.8933 22.2395 29.3858 21.2477C28.8861 20.2559 28.6323 19.068 28.6247 17.684V6.40484H33.5377V16.8075C33.5454 17.8532 33.826 18.6797 34.3796 19.2871C34.9331 19.8945 35.6751 20.1982 36.6054 20.1982C37.1974 20.1982 37.751 20.0636 38.2662 19.7945C38.7813 19.5177 39.1965 19.1103 39.5117 18.5721C39.8346 18.0338 39.9922 17.3688 39.9846 16.5769Z" fill="white"/>
<path d="M48.9197 24.1194V0.5H53.8327V9.38033H53.9826C54.1979 8.90364 54.5093 8.41926 54.9168 7.92719C55.332 7.42743 55.8702 7.01224 56.5314 6.68163C57.2003 6.34334 58.0307 6.17419 59.0225 6.17419C60.3142 6.17419 61.5059 6.51248 62.5977 7.18908C63.6895 7.85799 64.5621 8.86904 65.2157 10.2222C65.8692 11.5677 66.1959 13.2554 66.1959 15.2852C66.1959 17.2611 65.8769 18.9296 65.2387 20.2905C64.6083 21.6436 63.7471 22.6701 62.6553 23.3697C61.5713 24.0617 60.3565 24.4077 59.011 24.4077C58.0576 24.4077 57.2464 24.2501 56.5775 23.9348C55.9163 23.6196 55.3742 23.2237 54.9514 22.747C54.5285 22.2626 54.2056 21.7744 53.9826 21.2823H53.7635V24.1194H48.9197ZM53.7289 15.2621C53.7289 16.3154 53.875 17.2342 54.1671 18.0185C54.4593 18.8027 54.8822 19.414 55.4358 19.8522C55.9893 20.2828 56.6621 20.498 57.454 20.498C58.2536 20.498 58.9302 20.2789 59.4838 19.8407C60.0374 19.3947 60.4564 18.7796 60.7409 17.9954C61.0331 17.2035 61.1791 16.2924 61.1791 15.2621C61.1791 14.2395 61.0369 13.34 60.7524 12.5634C60.4679 11.7869 60.0489 11.1795 59.4953 10.7412C58.9418 10.303 58.2613 10.0838 57.454 10.0838C56.6544 10.0838 55.9778 10.2953 55.4242 10.7181C54.8783 11.141 54.4593 11.7407 54.1671 12.5173C53.875 13.2938 53.7289 14.2088 53.7289 15.2621Z" fill="white"/>
<path d="M84.4658 13.4482L80.0496 12.5514C80.0748 12.1602 80.0047 11.7832 79.8392 11.4205C79.6758 11.0503 79.4174 10.7224 79.0641 10.4367C78.7202 10.1455 78.2735 9.92635 77.7239 9.77909C76.9887 9.58209 76.3268 9.57189 75.7382 9.74849C75.1516 9.91766 74.7897 10.2585 74.6524 10.7709C74.5429 11.1794 74.6138 11.5685 74.8649 11.9383C75.1161 12.308 75.6161 12.6848 76.365 13.0685L79.2947 14.5222C80.8667 15.3095 81.9597 16.1914 82.5737 17.1678C83.1876 18.1442 83.3294 19.2489 82.9991 20.4817C82.6986 21.6031 82.1045 22.4986 81.2166 23.1681C80.3362 23.8396 79.2605 24.2598 77.9894 24.4286C76.7278 24.5921 75.3543 24.4748 73.869 24.0768C71.6039 23.4698 69.9256 22.5147 68.8341 21.2113C67.752 19.9025 67.3148 18.4004 67.5223 16.7048L72.2556 17.7104C72.2117 18.4389 72.412 19.0577 72.8566 19.5669C73.3033 20.0687 73.9499 20.433 74.7965 20.6598C75.6283 20.8827 76.3395 20.9021 76.9301 20.7181C77.5301 20.5286 77.9024 20.1787 78.0471 19.6682C78.1551 19.2355 78.0677 18.834 77.7849 18.4637C77.504 18.0859 77.0121 17.7233 76.3093 17.3758L73.5043 15.9914C71.9228 15.2094 70.8341 14.2968 70.238 13.2536C69.6494 12.2123 69.5263 11.053 69.8685 9.77563C70.163 8.67649 70.7138 7.8092 71.5209 7.17375C72.3354 6.54029 73.3424 6.15345 74.5422 6.01324C75.7493 5.87502 77.0844 6.00192 78.5474 6.39394C80.7086 6.97302 82.2869 7.88546 83.2823 9.13125C84.2853 10.379 84.6797 11.818 84.4658 13.4482Z" fill="white"/>
<path d="M102.734 13.4482L98.3178 12.5514C98.343 12.1602 98.2729 11.7832 98.1074 11.4205C97.9439 11.0503 97.6855 10.7224 97.3322 10.4367C96.9884 10.1455 96.5416 9.92635 95.9921 9.77909C95.2568 9.58209 94.5949 9.57189 94.0063 9.74849C93.4198 9.91766 93.0578 10.2585 92.9205 10.7709C92.811 11.1794 92.8819 11.5685 93.133 11.9383C93.3842 12.308 93.8842 12.6848 94.6331 13.0685L97.5628 14.5222C99.1349 15.3095 100.228 16.1914 100.842 17.1678C101.456 18.1442 101.598 19.2489 101.267 20.4817C100.967 21.6031 100.373 22.4986 99.4848 23.1681C98.6044 23.8396 97.5286 24.2598 96.2576 24.4286C94.9959 24.5921 93.6225 24.4748 92.1372 24.0768C89.872 23.4698 88.1937 22.5147 87.1022 21.2113C86.0201 19.9025 85.5829 18.4004 85.7905 16.7048L90.5238 17.7104C90.4798 18.4389 90.6801 19.0577 91.1248 19.5669C91.5714 20.0687 92.218 20.433 93.0647 20.6598C93.8964 20.8827 94.6076 20.9021 95.1982 20.7181C95.7982 20.5286 96.1706 20.1787 96.3153 19.6682C96.4233 19.2355 96.3359 18.834 96.053 18.4637C95.7721 18.0859 95.2803 17.7233 94.5774 17.3758L91.7724 15.9914C90.191 15.2094 89.1022 14.2968 88.5062 13.2536C87.9176 12.2123 87.7944 11.053 88.1367 9.77563C88.4312 8.67649 88.982 7.8092 89.789 7.17375C90.6035 6.54029 91.6106 6.15345 92.8103 6.01324C94.0174 5.87502 95.3525 6.00192 96.8156 6.39394C98.9767 6.97302 100.555 7.88546 101.55 9.13125C102.553 10.379 102.948 11.818 102.734 13.4482Z" fill="white"/>
<path d="M121.002 13.4482L116.586 12.5514C116.611 12.1602 116.541 11.7832 116.375 11.4205C116.212 11.0503 115.954 10.7224 115.6 10.4367C115.256 10.1455 114.81 9.92635 114.26 9.77909C113.525 9.58209 112.863 9.57189 112.274 9.74849C111.688 9.91766 111.326 10.2585 111.189 10.7709C111.079 11.1794 111.15 11.5685 111.401 11.9383C111.652 12.308 112.152 12.6848 112.901 13.0685L115.831 14.5222C117.403 15.3095 118.496 16.1914 119.11 17.1678C119.724 18.1442 119.866 19.2489 119.535 20.4817C119.235 21.6031 118.641 22.4986 117.753 23.1681C116.872 23.8396 115.797 24.2598 114.526 24.4286C113.264 24.5921 111.891 24.4748 110.405 24.0768C108.14 23.4698 106.462 22.5147 105.37 21.2113C104.288 19.9025 103.851 18.4004 104.059 16.7048L108.792 17.7104C108.748 18.4389 108.948 19.0577 109.393 19.5669C109.84 20.0687 110.486 20.433 111.333 20.6598C112.165 20.8827 112.876 20.9021 113.466 20.7181C114.066 20.5286 114.439 20.1787 114.583 19.6682C114.691 19.2355 114.604 18.834 114.321 18.4637C114.04 18.0859 113.548 17.7233 112.846 17.3758L110.041 15.9914C108.459 15.2094 107.37 14.2968 106.774 13.2536C106.186 12.2123 106.062 11.053 106.405 9.77563C106.699 8.67649 107.25 7.8092 108.057 7.17375C108.872 6.54029 109.879 6.15345 111.078 6.01324C112.286 5.87502 113.621 6.00192 115.084 6.39394C117.245 6.97302 118.823 7.88546 119.819 9.13125C120.822 10.379 121.216 11.818 121.002 13.4482Z" fill="white"/>
</svg>
